<svg xmlns="http://www.w3.org/2000/svg" viewBox="0 0 24 24" width="24" height="24">
  <defs>
    <linearGradient id="gemini" x1="0%" y1="0%" x2="100%" y2="100%">
      <stop offset="0%" stop-color="#4285F4"/>
      <stop offset="25%" stop-color="#9B72CB"/>
      <stop offset="50%" stop-color="#D96570"/>
      <stop offset="75%" stop-color="#D96570"/>
      <stop offset="100%" stop-color="#9B72CB"/>
    </linearGradient>
  </defs>
  <path d="M12 2C12 2 14.5 8.5 12 12C9.5 8.5 12 2 12 2Z" fill="url(#gemini)"/>
  <path d="M12 22C12 22 9.5 15.5 12 12C14.5 15.5 12 22 12 22Z" fill="url(#gemini)"/>
  <path d="M2 12C2 12 8.5 9.5 12 12C8.5 14.5 2 12 2 12Z" fill="url(#gemini)"/>
  <path d="M22 12C22 12 15.5 14.5 12 12C15.5 9.5 22 12 22 12Z" fill="url(#gemini)"/>
</svg>
