<svg xmlns="http://www.w3.org/2000/svg" viewBox="0 0 24 24" width="24" height="24">
  <path d="M22.282 9.821a5.985 5.985 0 00-.516-4.91 6.046 6.046 0 00-6.51-2.9A6.065 6.065 0 0011.8.417a6.042 6.042 0 00-5.77 4.264 6.028 6.028 0 00-4.03 2.92 6.044 6.044 0 00.747 7.08 5.98 5.98 0 00.51 4.91 6.05 6.05 0 006.515 2.9A5.98 5.98 0 0013.23 23.58a6.044 6.044 0 005.77-4.264 6.032 6.032 0 004.029-2.92 6.043 6.043 0 00-.747-7.576zM13.23 22.098a4.577 4.577 0 01-2.94-1.072l.146-.084 4.89-2.82a.79.79 0 00.4-.693v-6.89l2.067 1.193a.073.073 0 01.04.056v5.705a4.59 4.59 0 01-4.6 4.605zm-9.886-4.22a4.567 4.567 0 01-.547-3.073l.146.088 4.89 2.82a.793.793 0 00.792 0l5.973-3.45v2.387a.078.078 0 01-.03.063L9.63 19.539a4.59 4.59 0 01-6.286-1.66zm-1.285-10.66a4.567 4.567 0 012.394-2.006v5.804a.788.788 0 00.396.69l5.973 3.45-2.067 1.193a.076.076 0 01-.07.006L3.624 12.53a4.59 4.59 0 01-1.564-6.312zM19.823 12l-5.973-3.45 2.067-1.193a.076.076 0 01.07-.006l4.937 2.85a4.585 4.585 0 01-.7 8.28v-5.79a.79.79 0 00-.4-.69zm2.058-3.088l-.146-.088-4.89-2.82a.793.793 0 00-.792 0l-5.973 3.45V7.067a.078.078 0 01.03-.063l4.937-2.844a4.588 4.588 0 016.834 4.752zM8.678 13.914l-2.067-1.193a.073.073 0 01-.04-.056V7.96a4.588 4.588 0 017.54-3.52l-.146.084-4.89 2.82a.79.79 0 00-.4.693l-.003 5.877zm1.124-2.42L12 10.2l2.198 1.27v2.538L12 15.277l-2.198-1.27v-2.554z" fill="#10A37F"/>
</svg>
